v 0.47910000 0.25070000 0.02300000
v 0.47878701 0.25707111 0.02300000
v 0.47878701 0.25707111 0.15400000
v 0.47910000 0.25070000 0.15400000
f 1 2 3 4
v 0.47910000 0.25070000 0.15400000
v 0.47878701 0.25707111 0.15400000
v 0.45884479 0.24789491 0.18000000
v 0.45910000 0.24270000 0.18000000
f 5 6 7 8
v 0.00000000 0.00000000 0.18000000
v 0.45910000 0.24270000 0.18000000
v 0.45884479 0.24789491 0.18000000
f 9 10 11
v 0.47878701 0.25707111 0.02300000
v 0.47785104 0.26338087 0.02300000
v 0.47785104 0.26338087 0.15400000
v 0.47878701 0.25707111 0.15400000
f 12 13 14 15
v 0.47878701 0.25707111 0.15400000
v 0.47785104 0.26338087 0.15400000
v 0.45808162 0.25303979 0.18000000
v 0.45884479 0.24789491 0.18000000
f 16 17 18 19
v 0.00000000 0.00000000 0.18000000
v 0.45884479 0.24789491 0.18000000
v 0.45808162 0.25303979 0.18000000
f 20 21 22
v 0.47785104 0.26338087 0.02300000
v 0.47630112 0.26956850 0.02300000
v 0.47630112 0.26956850 0.15400000
v 0.47785104 0.26338087 0.15400000
f 23 24 25 26
v 0.47785104 0.26338087 0.15400000
v 0.47630112 0.26956850 0.15400000
v 0.45681784 0.25808509 0.18000000
v 0.45808162 0.25303979 0.18000000
f 27 28 29 30
v 0.00000000 0.00000000 0.18000000
v 0.45808162 0.25303979 0.18000000
v 0.45681784 0.25808509 0.18000000
f 31 32 33
v 0.47630112 0.26956850 0.02300000
v 0.47415217 0.27557442 0.02300000
v 0.47415217 0.27557442 0.15400000
v 0.47630112 0.26956850 0.15400000
f 34 35 36 37
v 0.47630112 0.26956850 0.15400000
v 0.47415217 0.27557442 0.15400000
v 0.45506562 0.26298222 0.18000000
v 0.45681784 0.25808509 0.18000000
f 38 39 40 41
v 0.00000000 0.00000000 0.18000000
v 0.45681784 0.25808509 0.18000000
v 0.45506562 0.26298222 0.18000000
f 42 43 44
v 0.47415217 0.27557442 0.02300000
v 0.47142488 0.28134079 0.02300000
v 0.47142488 0.28134079 0.15400000
v 0.47415217 0.27557442 0.15400000
f 45 46 47 48
v 0.47415217 0.27557442 0.15400000
v 0.47142488 0.28134079 0.15400000
v 0.45284183 0.26768403 0.18000000
v 0.45506562 0.26298222 0.18000000
f 49 50 51 52
v 0.00000000 0.00000000 0.18000000
v 0.45506562 0.26298222 0.18000000
v 0.45284183 0.26768403 0.18000000
f 53 54 55
v 0.47142488 0.28134079 0.02300000
v 0.46814552 0.28681207 0.02300000
v 0.46814552 0.28681207 0.15400000
v 0.47142488 0.28134079 0.15400000
f 56 57 58 59
v 0.47142488 0.28134079 0.15400000
v 0.46814552 0.28681207 0.15400000
v 0.45016789 0.27214522 0.18000000
v 0.45284183 0.26768403 0.18000000
f 60 61 62 63
v 0.00000000 0.00000000 0.18000000
v 0.45284183 0.26768403 0.18000000
v 0.45016789 0.27214522 0.18000000
f 64 65 66
v 0.46814552 0.28681207 0.02300000
v 0.46434568 0.29193556 0.02300000
v 0.46434568 0.29193556 0.15400000
v 0.46814552 0.28681207 0.15400000
f 67 68 69 70
v 0.46814552 0.28681207 0.15400000
v 0.46434568 0.29193556 0.15400000
v 0.44706955 0.27632284 0.18000000
v 0.45016789 0.27214522 0.18000000
f 71 72 73 74
v 0.00000000 0.00000000 0.18000000
v 0.45016789 0.27214522 0.18000000
v 0.44706955 0.27632284 0.18000000
f 75 76 77
v 0.46434568 0.29193556 0.02300000
v 0.46006194 0.29666194 0.02300000
v 0.46006194 0.29666194 0.15400000
v 0.46434568 0.29193556 0.15400000
f 78 79 80 81
v 0.46434568 0.29193556 0.15400000
v 0.46006194 0.29666194 0.15400000
v 0.44357666 0.28017666 0.18000000
v 0.44706955 0.27632284 0.18000000
f 82 83 84 85
v 0.00000000 0.00000000 0.18000000
v 0.44706955 0.27632284 0.18000000
v 0.44357666 0.28017666 0.18000000
f 86 87 88
v 0.46006194 0.29666194 0.02300000
v 0.45533556 0.30094568 0.02300000
v 0.45533556 0.30094568 0.15400000
v 0.46006194 0.29666194 0.15400000
f 89 90 91 92
v 0.46006194 0.29666194 0.15400000
v 0.45533556 0.30094568 0.15400000
v 0.43972284 0.28366955 0.18000000
v 0.44357666 0.28017666 0.18000000
f 93 94 95 96
v 0.00000000 0.00000000 0.18000000
v 0.44357666 0.28017666 0.18000000
v 0.43972284 0.28366955 0.18000000
f 97 98 99
v 0.45533556 0.30094568 0.02300000
v 0.45021207 0.30474552 0.02300000
v 0.45021207 0.30474552 0.15400000
v 0.45533556 0.30094568 0.15400000
f 100 101 102 103
v 0.45533556 0.30094568 0.15400000
v 0.45021207 0.30474552 0.15400000
v 0.43554522 0.28676789 0.18000000
v 0.43972284 0.28366955 0.18000000
f 104 105 106 107
v 0.00000000 0.00000000 0.18000000
v 0.43972284 0.28366955 0.18000000
v 0.43554522 0.28676789 0.18000000
f 108 109 110
v 0.45021207 0.30474552 0.02300000
v 0.44474079 0.30802488 0.02300000
v 0.44474079 0.30802488 0.15400000
v 0.45021207 0.30474552 0.15400000
f 111 112 113 114
v 0.45021207 0.30474552 0.15400000
v 0.44474079 0.30802488 0.15400000
v 0.43108403 0.28944183 0.18000000
v 0.43554522 0.28676789 0.18000000
f 115 116 117 118
v 0.00000000 0.00000000 0.18000000
v 0.43554522 0.28676789 0.18000000
v 0.43108403 0.28944183 0.18000000
f 119 120 121
v 0.44474079 0.30802488 0.02300000
v 0.43897442 0.31075217 0.02300000
v 0.43897442 0.31075217 0.15400000
v 0.44474079 0.30802488 0.15400000
f 122 123 124 125
v 0.44474079 0.30802488 0.15400000
v 0.43897442 0.31075217 0.15400000
v 0.42638222 0.29166562 0.18000000
v 0.43108403 0.28944183 0.18000000
f 126 127 128 129
v 0.00000000 0.00000000 0.18000000
v 0.43108403 0.28944183 0.18000000
v 0.42638222 0.29166562 0.18000000
f 130 131 132
v 0.43897442 0.31075217 0.02300000
v 0.43296850 0.31290112 0.02300000
v 0.43296850 0.31290112 0.15400000
v 0.43897442 0.31075217 0.15400000
f 133 134 135 136
v 0.43897442 0.31075217 0.15400000
v 0.43296850 0.31290112 0.15400000
v 0.42148509 0.29341784 0.18000000
v 0.42638222 0.29166562 0.18000000
f 137 138 139 140
v 0.00000000 0.00000000 0.18000000
v 0.42638222 0.29166562 0.18000000
v 0.42148509 0.29341784 0.18000000
f 141 142 143
v 0.43296850 0.31290112 0.02300000
v 0.42678087 0.31445104 0.02300000
v 0.42678087 0.31445104 0.15400000
v 0.43296850 0.31290112 0.15400000
f 144 145 146 147
v 0.43296850 0.31290112 0.15400000
v 0.42678087 0.31445104 0.15400000
v 0.41643979 0.29468162 0.18000000
v 0.42148509 0.29341784 0.18000000
f 148 149 150 151
v 0.00000000 0.00000000 0.18000000
v 0.42148509 0.29341784 0.18000000
v 0.41643979 0.29468162 0.18000000
f 152 153 154
v 0.42678087 0.31445104 0.02300000
v 0.42047111 0.31538701 0.02300000
v 0.42047111 0.31538701 0.15400000
v 0.42678087 0.31445104 0.15400000
f 155 156 157 158
v 0.42678087 0.31445104 0.15400000
v 0.42047111 0.31538701 0.15400000
v 0.41129491 0.29544479 0.18000000
v 0.41643979 0.29468162 0.18000000
f 159 160 161 162
v 0.00000000 0.00000000 0.18000000
v 0.41643979 0.29468162 0.18000000
v 0.41129491 0.29544479 0.18000000
f 163 164 165
v 0.42047111 0.31538701 0.02300000
v 0.41410000 0.31570000 0.02300000
v 0.41410000 0.31570000 0.15400000
v 0.42047111 0.31538701 0.15400000
f 166 167 168 169
v 0.42047111 0.31538701 0.15400000
v 0.41410000 0.31570000 0.15400000
v 0.40610000 0.29570000 0.18000000
v 0.41129491 0.29544479 0.18000000
f 170 171 172 173
v 0.00000000 0.00000000 0.18000000
v 0.41129491 0.29544479 0.18000000
v 0.40610000 0.29570000 0.18000000
f 174 175 176
v 0.41410000 0.31570000 0.02300000
v 0.40374750 0.31570000 0.02300000
v 0.40374750 0.31570000 0.15400000
v 0.41410000 0.31570000 0.15400000
f 177 178 179 180
v 0.40374750 0.31570000 0.02300000
v 0.39339500 0.31570000 0.02300000
v 0.39339500 0.31570000 0.15400000
v 0.40374750 0.31570000 0.15400000
f 181 182 183 184
v 0.39339500 0.31570000 0.02300000
v 0.38304250 0.31570000 0.02300000
v 0.38304250 0.31570000 0.15400000
v 0.39339500 0.31570000 0.15400000
f 185 186 187 188
v 0.38304250 0.31570000 0.02300000
v 0.37269000 0.31570000 0.02300000
v 0.37269000 0.31570000 0.15400000
v 0.38304250 0.31570000 0.15400000
f 189 190 191 192
v 0.37269000 0.31570000 0.02300000
v 0.36233750 0.31570000 0.02300000
v 0.36233750 0.31570000 0.15400000
v 0.37269000 0.31570000 0.15400000
f 193 194 195 196
v 0.36233750 0.31570000 0.02300000
v 0.35198500 0.31570000 0.02300000
v 0.35198500 0.31570000 0.15400000
v 0.36233750 0.31570000 0.15400000
f 197 198 199 200
v 0.35198500 0.31570000 0.02300000
v 0.34163250 0.31570000 0.02300000
v 0.34163250 0.31570000 0.15400000
v 0.35198500 0.31570000 0.15400000
f 201 202 203 204
v 0.34163250 0.31570000 0.02300000
v 0.33128000 0.31570000 0.02300000
v 0.33128000 0.31570000 0.15400000
v 0.34163250 0.31570000 0.15400000
f 205 206 207 208
v 0.33128000 0.31570000 0.02300000
v 0.32092750 0.31570000 0.02300000
v 0.32092750 0.31570000 0.15400000
v 0.33128000 0.31570000 0.15400000
f 209 210 211 212
v 0.32092750 0.31570000 0.02300000
v 0.31057500 0.31570000 0.02300000
v 0.31057500 0.31570000 0.15400000
v 0.32092750 0.31570000 0.15400000
f 213 214 215 216
v 0.31057500 0.31570000 0.02300000
v 0.30022250 0.31570000 0.02300000
v 0.30022250 0.31570000 0.15400000
v 0.31057500 0.31570000 0.15400000
f 217 218 219 220
v 0.30022250 0.31570000 0.02300000
v 0.28987000 0.31570000 0.02300000
v 0.28987000 0.31570000 0.15400000
v 0.30022250 0.31570000 0.15400000
f 221 222 223 224
v 0.28987000 0.31570000 0.02300000
v 0.27951750 0.31570000 0.02300000
v 0.27951750 0.31570000 0.15400000
v 0.28987000 0.31570000 0.15400000
f 225 226 227 228
v 0.27951750 0.31570000 0.02300000
v 0.26916500 0.31570000 0.02300000
v 0.26916500 0.31570000 0.15400000
v 0.27951750 0.31570000 0.15400000
f 229 230 231 232
v 0.26916500 0.31570000 0.02300000
v 0.25881250 0.31570000 0.02300000
v 0.25881250 0.31570000 0.15400000
v 0.26916500 0.31570000 0.15400000
f 233 234 235 236
v 0.25881250 0.31570000 0.02300000
v 0.24846000 0.31570000 0.02300000
v 0.24846000 0.31570000 0.15400000
v 0.25881250 0.31570000 0.15400000
f 237 238 239 240
v 0.24846000 0.31570000 0.02300000
v 0.23810750 0.31570000 0.02300000
v 0.23810750 0.31570000 0.15400000
v 0.24846000 0.31570000 0.15400000
f 241 242 243 244
v 0.23810750 0.31570000 0.02300000
v 0.22775500 0.31570000 0.02300000
v 0.22775500 0.31570000 0.15400000
v 0.23810750 0.31570000 0.15400000
f 245 246 247 248
v 0.22775500 0.31570000 0.02300000
v 0.21740250 0.31570000 0.02300000
v 0.21740250 0.31570000 0.15400000
v 0.22775500 0.31570000 0.15400000
f 249 250 251 252
v 0.21740250 0.31570000 0.02300000
v 0.20705000 0.31570000 0.02300000
v 0.20705000 0.31570000 0.15400000
v 0.21740250 0.31570000 0.15400000
f 253 254 255 256
v 0.20705000 0.31570000 0.02300000
v 0.19669750 0.31570000 0.02300000
v 0.19669750 0.31570000 0.15400000
v 0.20705000 0.31570000 0.15400000
f 257 258 259 260
v 0.19669750 0.31570000 0.02300000
v 0.18634500 0.31570000 0.02300000
v 0.18634500 0.31570000 0.15400000
v 0.19669750 0.31570000 0.15400000
f 261 262 263 264
v 0.18634500 0.31570000 0.02300000
v 0.17599250 0.31570000 0.02300000
v 0.17599250 0.31570000 0.15400000
v 0.18634500 0.31570000 0.15400000
f 265 266 267 268
v 0.17599250 0.31570000 0.02300000
v 0.16564000 0.31570000 0.02300000
v 0.16564000 0.31570000 0.15400000
v 0.17599250 0.31570000 0.15400000
f 269 270 271 272
v 0.16564000 0.31570000 0.02300000
v 0.15528750 0.31570000 0.02300000
v 0.15528750 0.31570000 0.15400000
v 0.16564000 0.31570000 0.15400000
f 273 274 275 276
v 0.15528750 0.31570000 0.02300000
v 0.14493500 0.31570000 0.02300000
v 0.14493500 0.31570000 0.15400000
v 0.15528750 0.31570000 0.15400000
f 277 278 279 280
v 0.14493500 0.31570000 0.02300000
v 0.13458250 0.31570000 0.02300000
v 0.13458250 0.31570000 0.15400000
v 0.14493500 0.31570000 0.15400000
f 281 282 283 284
v 0.13458250 0.31570000 0.02300000
v 0.12423000 0.31570000 0.02300000
v 0.12423000 0.31570000 0.15400000
v 0.13458250 0.31570000 0.15400000
f 285 286 287 288
v 0.12423000 0.31570000 0.02300000
v 0.11387750 0.31570000 0.02300000
v 0.11387750 0.31570000 0.15400000
v 0.12423000 0.31570000 0.15400000
f 289 290 291 292
v 0.11387750 0.31570000 0.02300000
v 0.10352500 0.31570000 0.02300000
v 0.10352500 0.31570000 0.15400000
v 0.11387750 0.31570000 0.15400000
f 293 294 295 296
v 0.10352500 0.31570000 0.02300000
v 0.09317250 0.31570000 0.02300000
v 0.09317250 0.31570000 0.15400000
v 0.10352500 0.31570000 0.15400000
f 297 298 299 300
v 0.09317250 0.31570000 0.02300000
v 0.08282000 0.31570000 0.12530659
v 0.08282000 0.31570000 0.15400000
v 0.09317250 0.31570000 0.15400000
f 301 302 303 304
v 0.08282000 0.31570000 0.12530659
v 0.07246750 0.31570000 0.14128775
v 0.07246750 0.31570000 0.15400000
v 0.08282000 0.31570000 0.15400000
f 305 306 307 308
v 0.07246750 0.31570000 0.14128775
v 0.06211500 0.31570000 0.15221508
v 0.06211500 0.31570000 0.15400000
v 0.07246750 0.31570000 0.15400000
f 309 310 311 312
v 0.06211500 0.31570000 0.15221508
v 0.05176250 0.31570000 0.15400000
v 0.05176250 0.31570000 0.15400000
v 0.06211500 0.31570000 0.15400000
f 313 314 315 316
v -0.05176250 0.31570000 0.15400000
v -0.06211500 0.31570000 0.15221508
v -0.06211500 0.31570000 0.15400000
v -0.05176250 0.31570000 0.15400000
f 317 318 319 320
v -0.06211500 0.31570000 0.15221508
v -0.07246750 0.31570000 0.14128775
v -0.07246750 0.31570000 0.15400000
v -0.06211500 0.31570000 0.15400000
f 321 322 323 324
v -0.07246750 0.31570000 0.14128775
v -0.08282000 0.31570000 0.12530659
v -0.08282000 0.31570000 0.15400000
v -0.07246750 0.31570000 0.15400000
f 325 326 327 328
v -0.08282000 0.31570000 0.12530659
v -0.09317250 0.31570000 0.02300000
v -0.09317250 0.31570000 0.15400000
v -0.08282000 0.31570000 0.15400000
f 329 330 331 332
v -0.09317250 0.31570000 0.02300000
v -0.10352500 0.31570000 0.02300000
v -0.10352500 0.31570000 0.15400000
v -0.09317250 0.31570000 0.15400000
f 333 334 335 336
v -0.10352500 0.31570000 0.02300000
v -0.11387750 0.31570000 0.02300000
v -0.11387750 0.31570000 0.15400000
v -0.10352500 0.31570000 0.15400000
f 337 338 339 340
v -0.11387750 0.31570000 0.02300000
v -0.12423000 0.31570000 0.02300000
v -0.12423000 0.31570000 0.15400000
v -0.11387750 0.31570000 0.15400000
f 341 342 343 344
v -0.12423000 0.31570000 0.02300000
v -0.13458250 0.31570000 0.02300000
v -0.13458250 0.31570000 0.15400000
v -0.12423000 0.31570000 0.15400000
f 345 346 347 348
v -0.13458250 0.31570000 0.02300000
v -0.14493500 0.31570000 0.02300000
v -0.14493500 0.31570000 0.15400000
v -0.13458250 0.31570000 0.15400000
f 349 350 351 352
v -0.14493500 0.31570000 0.02300000
v -0.15528750 0.31570000 0.02300000
v -0.15528750 0.31570000 0.15400000
v -0.14493500 0.31570000 0.15400000
f 353 354 355 356
v -0.15528750 0.31570000 0.02300000
v -0.16564000 0.31570000 0.02300000
v -0.16564000 0.31570000 0.15400000
v -0.15528750 0.31570000 0.15400000
f 357 358 359 360
v -0.16564000 0.31570000 0.02300000
v -0.17599250 0.31570000 0.02300000
v -0.17599250 0.31570000 0.15400000
v -0.16564000 0.31570000 0.15400000
f 361 362 363 364
v -0.17599250 0.31570000 0.02300000
v -0.18634500 0.31570000 0.02300000
v -0.18634500 0.31570000 0.15400000
v -0.17599250 0.31570000 0.15400000
f 365 366 367 368
v -0.18634500 0.31570000 0.02300000
v -0.19669750 0.31570000 0.02300000
v -0.19669750 0.31570000 0.15400000
v -0.18634500 0.31570000 0.15400000
f 369 370 371 372
v -0.19669750 0.31570000 0.02300000
v -0.20705000 0.31570000 0.02300000
v -0.20705000 0.31570000 0.15400000
v -0.19669750 0.31570000 0.15400000
f 373 374 375 376
v -0.20705000 0.31570000 0.02300000
v -0.21740250 0.31570000 0.02300000
v -0.21740250 0.31570000 0.15400000
v -0.20705000 0.31570000 0.15400000
f 377 378 379 380
v -0.21740250 0.31570000 0.02300000
v -0.22775500 0.31570000 0.02300000
v -0.22775500 0.31570000 0.15400000
v -0.21740250 0.31570000 0.15400000
f 381 382 383 384
v -0.22775500 0.31570000 0.02300000
v -0.23810750 0.31570000 0.02300000
v -0.23810750 0.31570000 0.15400000
v -0.22775500 0.31570000 0.15400000
f 385 386 387 388
v -0.23810750 0.31570000 0.02300000
v -0.24846000 0.31570000 0.02300000
v -0.24846000 0.31570000 0.15400000
v -0.23810750 0.31570000 0.15400000
f 389 390 391 392
v -0.24846000 0.31570000 0.02300000
v -0.25881250 0.31570000 0.02300000
v -0.25881250 0.31570000 0.15400000
v -0.24846000 0.31570000 0.15400000
f 393 394 395 396
v -0.25881250 0.31570000 0.02300000
v -0.26916500 0.31570000 0.02300000
v -0.26916500 0.31570000 0.15400000
v -0.25881250 0.31570000 0.15400000
f 397 398 399 400
v -0.26916500 0.31570000 0.02300000
v -0.27951750 0.31570000 0.02300000
v -0.27951750 0.31570000 0.15400000
v -0.26916500 0.31570000 0.15400000
f 401 402 403 404
v -0.27951750 0.31570000 0.02300000
v -0.28987000 0.31570000 0.02300000
v -0.28987000 0.31570000 0.15400000
v -0.27951750 0.31570000 0.15400000
f 405 406 407 408
v -0.28987000 0.31570000 0.02300000
v -0.30022250 0.31570000 0.02300000
v -0.30022250 0.31570000 0.15400000
v -0.28987000 0.31570000 0.15400000
f 409 410 411 412
v -0.30022250 0.31570000 0.02300000
v -0.31057500 0.31570000 0.02300000
v -0.31057500 0.31570000 0.15400000
v -0.30022250 0.31570000 0.15400000
f 413 414 415 416
v -0.31057500 0.31570000 0.02300000
v -0.32092750 0.31570000 0.02300000
v -0.32092750 0.31570000 0.15400000
v -0.31057500 0.31570000 0.15400000
f 417 418 419 420
v -0.32092750 0.31570000 0.02300000
v -0.33128000 0.31570000 0.02300000
v -0.33128000 0.31570000 0.15400000
v -0.32092750 0.31570000 0.15400000
f 421 422 423 424
v -0.33128000 0.31570000 0.02300000
v -0.34163250 0.31570000 0.02300000
v -0.34163250 0.31570000 0.15400000
v -0.33128000 0.31570000 0.15400000
f 425 426 427 428
v -0.34163250 0.31570000 0.02300000
v -0.35198500 0.31570000 0.02300000
v -0.35198500 0.31570000 0.15400000
v -0.34163250 0.31570000 0.15400000
f 429 430 431 432
v -0.35198500 0.31570000 0.02300000
v -0.36233750 0.31570000 0.02300000
v -0.36233750 0.31570000 0.15400000
v -0.35198500 0.31570000 0.15400000
f 433 434 435 436
v -0.36233750 0.31570000 0.02300000
v -0.37269000 0.31570000 0.02300000
v -0.37269000 0.31570000 0.15400000
v -0.36233750 0.31570000 0.15400000
f 437 438 439 440
v -0.37269000 0.31570000 0.02300000
v -0.38304250 0.31570000 0.02300000
v -0.38304250 0.31570000 0.15400000
v -0.37269000 0.31570000 0.15400000
f 441 442 443 444
v -0.38304250 0.31570000 0.02300000
v -0.39339500 0.31570000 0.02300000
v -0.39339500 0.31570000 0.15400000
v -0.38304250 0.31570000 0.15400000
f 445 446 447 448
v -0.39339500 0.31570000 0.02300000
v -0.40374750 0.31570000 0.02300000
v -0.40374750 0.31570000 0.15400000
v -0.39339500 0.31570000 0.15400000
f 449 450 451 452
v -0.40374750 0.31570000 0.02300000
v -0.41410000 0.31570000 0.02300000
v -0.41410000 0.31570000 0.15400000
v -0.40374750 0.31570000 0.15400000
f 453 454 455 456
v 0.41410000 0.31570000 0.15400000
v -0.41410000 0.31570000 0.15400000
v -0.40610000 0.29570000 0.18000000
v 0.40610000 0.29570000 0.18000000
f 457 458 459 460
v 0.00000000 0.00000000 0.18000000
v 0.40610000 0.29570000 0.18000000
v -0.40610000 0.29570000 0.18000000
f 461 462 463
v -0.41410000 0.31570000 0.02300000
v -0.42047111 0.31538701 0.02300000
v -0.42047111 0.31538701 0.15400000
v -0.41410000 0.31570000 0.15400000
f 464 465 466 467
v -0.41410000 0.31570000 0.15400000
v -0.42047111 0.31538701 0.15400000
v -0.41129491 0.29544479 0.18000000
v -0.40610000 0.29570000 0.18000000
f 468 469 470 471
v 0.00000000 0.00000000 0.18000000
v -0.40610000 0.29570000 0.18000000
v -0.41129491 0.29544479 0.18000000
f 472 473 474
v -0.42047111 0.31538701 0.02300000
v -0.42678087 0.31445104 0.02300000
v -0.42678087 0.31445104 0.15400000
v -0.42047111 0.31538701 0.15400000
f 475 476 477 478
v -0.42047111 0.31538701 0.15400000
v -0.42678087 0.31445104 0.15400000
v -0.41643979 0.29468162 0.18000000
v -0.41129491 0.29544479 0.18000000
f 479 480 481 482
v 0.00000000 0.00000000 0.18000000
v -0.41129491 0.29544479 0.18000000
v -0.41643979 0.29468162 0.18000000
f 483 484 485
v -0.42678087 0.31445104 0.02300000
v -0.43296850 0.31290112 0.02300000
v -0.43296850 0.31290112 0.15400000
v -0.42678087 0.31445104 0.15400000
f 486 487 488 489
v -0.42678087 0.31445104 0.15400000
v -0.43296850 0.31290112 0.15400000
v -0.42148509 0.29341784 0.18000000
v -0.41643979 0.29468162 0.18000000
f 490 491 492 493
v 0.00000000 0.00000000 0.18000000
v -0.41643979 0.29468162 0.18000000
v -0.42148509 0.29341784 0.18000000
f 494 495 496
v -0.43296850 0.31290112 0.02300000
v -0.43897442 0.31075217 0.02300000
v -0.43897442 0.31075217 0.15400000
v -0.43296850 0.31290112 0.15400000
f 497 498 499 500
v -0.43296850 0.31290112 0.15400000
v -0.43897442 0.31075217 0.15400000
v -0.42638222 0.29166562 0.18000000
v -0.42148509 0.29341784 0.18000000
f 501 502 503 504
v 0.00000000 0.00000000 0.18000000
v -0.42148509 0.29341784 0.18000000
v -0.42638222 0.29166562 0.18000000
f 505 506 507
v -0.43897442 0.31075217 0.02300000
v -0.44474079 0.30802488 0.02300000
v -0.44474079 0.30802488 0.15400000
v -0.43897442 0.31075217 0.15400000
f 508 509 510 511
v -0.43897442 0.31075217 0.15400000
v -0.44474079 0.30802488 0.15400000
v -0.43108403 0.28944183 0.18000000
v -0.42638222 0.29166562 0.18000000
f 512 513 514 515
v 0.00000000 0.00000000 0.18000000
v -0.42638222 0.29166562 0.18000000
v -0.43108403 0.28944183 0.18000000
f 516 517 518
v -0.44474079 0.30802488 0.02300000
v -0.45021207 0.30474552 0.02300000
v -0.45021207 0.30474552 0.15400000
v -0.44474079 0.30802488 0.15400000
f 519 520 521 522
v -0.44474079 0.30802488 0.15400000
v -0.45021207 0.30474552 0.15400000
v -0.43554522 0.28676789 0.18000000
v -0.43108403 0.28944183 0.18000000
f 523 524 525 526
v 0.00000000 0.00000000 0.18000000
v -0.43108403 0.28944183 0.18000000
v -0.43554522 0.28676789 0.18000000
f 527 528 529
v -0.45021207 0.30474552 0.02300000
v -0.45533556 0.30094568 0.02300000
v -0.45533556 0.30094568 0.15400000
v -0.45021207 0.30474552 0.15400000
f 530 531 532 533
v -0.45021207 0.30474552 0.15400000
v -0.45533556 0.30094568 0.15400000
v -0.43972284 0.28366955 0.18000000
v -0.43554522 0.28676789 0.18000000
f 534 535 536 537
v 0.00000000 0.00000000 0.18000000
v -0.43554522 0.28676789 0.18000000
v -0.43972284 0.28366955 0.18000000
f 538 539 540
v -0.45533556 0.30094568 0.02300000
v -0.46006194 0.29666194 0.02300000
v -0.46006194 0.29666194 0.15400000
v -0.45533556 0.30094568 0.15400000
f 541 542 543 544
v -0.45533556 0.30094568 0.15400000
v -0.46006194 0.29666194 0.15400000
v -0.44357666 0.28017666 0.18000000
v -0.43972284 0.28366955 0.18000000
f 545 546 547 548
v 0.00000000 0.00000000 0.18000000
v -0.43972284 0.28366955 0.18000000
v -0.44357666 0.28017666 0.18000000
f 549 550 551
v -0.46006194 0.29666194 0.02300000
v -0.46434568 0.29193556 0.02300000
v -0.46434568 0.29193556 0.15400000
v -0.46006194 0.29666194 0.15400000
f 552 553 554 555
v -0.46006194 0.29666194 0.15400000
v -0.46434568 0.29193556 0.15400000
v -0.44706955 0.27632284 0.18000000
v -0.44357666 0.28017666 0.18000000
f 556 557 558 559
v 0.00000000 0.00000000 0.18000000
v -0.44357666 0.28017666 0.18000000
v -0.44706955 0.27632284 0.18000000
f 560 561 562
v -0.46434568 0.29193556 0.02300000
v -0.46814552 0.28681207 0.02300000
v -0.46814552 0.28681207 0.15400000
v -0.46434568 0.29193556 0.15400000
f 563 564 565 566
v -0.46434568 0.29193556 0.15400000
v -0.46814552 0.28681207 0.15400000
v -0.45016789 0.27214522 0.18000000
v -0.44706955 0.27632284 0.18000000
f 567 568 569 570
v 0.00000000 0.00000000 0.18000000
v -0.44706955 0.27632284 0.18000000
v -0.45016789 0.27214522 0.18000000
f 571 572 573
v -0.46814552 0.28681207 0.02300000
v -0.47142488 0.28134079 0.02300000
v -0.47142488 0.28134079 0.15400000
v -0.46814552 0.28681207 0.15400000
f 574 575 576 577
v -0.46814552 0.28681207 0.15400000
v -0.47142488 0.28134079 0.15400000
v -0.45284183 0.26768403 0.18000000
v -0.45016789 0.27214522 0.18000000
f 578 579 580 581
v 0.00000000 0.00000000 0.18000000
v -0.45016789 0.27214522 0.18000000
v -0.45284183 0.26768403 0.18000000
f 582 583 584
v -0.47142488 0.28134079 0.02300000
v -0.47415217 0.27557442 0.02300000
v -0.47415217 0.27557442 0.15400000
v -0.47142488 0.28134079 0.15400000
f 585 586 587 588
v -0.47142488 0.28134079 0.15400000
v -0.47415217 0.27557442 0.15400000
v -0.45506562 0.26298222 0.18000000
v -0.45284183 0.26768403 0.18000000
f 589 590 591 592
v 0.00000000 0.00000000 0.18000000
v -0.45284183 0.26768403 0.18000000
v -0.45506562 0.26298222 0.18000000
f 593 594 595
v -0.47415217 0.27557442 0.02300000
v -0.47630112 0.26956850 0.02300000
v -0.47630112 0.26956850 0.15400000
v -0.47415217 0.27557442 0.15400000
f 596 597 598 599
v -0.47415217 0.27557442 0.15400000
v -0.47630112 0.26956850 0.15400000
v -0.45681784 0.25808509 0.18000000
v -0.45506562 0.26298222 0.18000000
f 600 601 602 603
v 0.00000000 0.00000000 0.18000000
v -0.45506562 0.26298222 0.18000000
v -0.45681784 0.25808509 0.18000000
f 604 605 606
v -0.47630112 0.26956850 0.02300000
v -0.47785104 0.26338087 0.02300000
v -0.47785104 0.26338087 0.15400000
v -0.47630112 0.26956850 0.15400000
f 607 608 609 610
v -0.47630112 0.26956850 0.15400000
v -0.47785104 0.26338087 0.15400000
v -0.45808162 0.25303979 0.18000000
v -0.45681784 0.25808509 0.18000000
f 611 612 613 614
v 0.00000000 0.00000000 0.18000000
v -0.45681784 0.25808509 0.18000000
v -0.45808162 0.25303979 0.18000000
f 615 616 617
v -0.47785104 0.26338087 0.02300000
v -0.47878701 0.25707111 0.02300000
v -0.47878701 0.25707111 0.15400000
v -0.47785104 0.26338087 0.15400000
f 618 619 620 621
v -0.47785104 0.26338087 0.15400000
v -0.47878701 0.25707111 0.15400000
v -0.45884479 0.24789491 0.18000000
v -0.45808162 0.25303979 0.18000000
f 622 623 624 625
v 0.00000000 0.00000000 0.18000000
v -0.45808162 0.25303979 0.18000000
v -0.45884479 0.24789491 0.18000000
f 626 627 628
v -0.47878701 0.25707111 0.02300000
v -0.47910000 0.25070000 0.02300000
v -0.47910000 0.25070000 0.15400000
v -0.47878701 0.25707111 0.15400000
f 629 630 631 632
v -0.47878701 0.25707111 0.15400000
v -0.47910000 0.25070000 0.15400000
v -0.45910000 0.24270000 0.18000000
v -0.45884479 0.24789491 0.18000000
f 633 634 635 636
v 0.00000000 0.00000000 0.18000000
v -0.45884479 0.24789491 0.18000000
v -0.45910000 0.24270000 0.18000000
f 637 638 639
v -0.47910000 0.25070000 0.02300000
v -0.47910000 -0.25070000 0.02300000
v -0.47910000 -0.25070000 0.15400000
v -0.47910000 0.25070000 0.15400000
f 640 641 642 643
v -0.47910000 0.25070000 0.15400000
v -0.47910000 -0.25070000 0.15400000
v -0.45910000 -0.24270000 0.18000000
v -0.45910000 0.24270000 0.18000000
f 644 645 646 647
v 0.00000000 0.00000000 0.18000000
v -0.45910000 0.24270000 0.18000000
v -0.45910000 -0.24270000 0.18000000
f 648 649 650
v -0.47910000 -0.25070000 0.02300000
v -0.47878701 -0.25707111 0.02300000
v -0.47878701 -0.25707111 0.15400000
v -0.47910000 -0.25070000 0.15400000
f 651 652 653 654
v -0.47910000 -0.25070000 0.15400000
v -0.47878701 -0.25707111 0.15400000
v -0.45884479 -0.24789491 0.18000000
v -0.45910000 -0.24270000 0.18000000
f 655 656 657 658
v 0.00000000 0.00000000 0.18000000
v -0.45910000 -0.24270000 0.18000000
v -0.45884479 -0.24789491 0.18000000
f 659 660 661
v -0.47878701 -0.25707111 0.02300000
v -0.47785104 -0.26338087 0.02300000
v -0.47785104 -0.26338087 0.15400000
v -0.47878701 -0.25707111 0.15400000
f 662 663 664 665
v -0.47878701 -0.25707111 0.15400000
v -0.47785104 -0.26338087 0.15400000
v -0.45808162 -0.25303979 0.18000000
v -0.45884479 -0.24789491 0.18000000
f 666 667 668 669
v 0.00000000 0.00000000 0.18000000
v -0.45884479 -0.24789491 0.18000000
v -0.45808162 -0.25303979 0.18000000
f 670 671 672
v -0.47785104 -0.26338087 0.02300000
v -0.47630112 -0.26956850 0.02300000
v -0.47630112 -0.26956850 0.15400000
v -0.47785104 -0.26338087 0.15400000
f 673 674 675 676
v -0.47785104 -0.26338087 0.15400000
v -0.47630112 -0.26956850 0.15400000
v -0.45681784 -0.25808509 0.18000000
v -0.45808162 -0.25303979 0.18000000
f 677 678 679 680
v 0.00000000 0.00000000 0.18000000
v -0.45808162 -0.25303979 0.18000000
v -0.45681784 -0.25808509 0.18000000
f 681 682 683
v -0.47630112 -0.26956850 0.02300000
v -0.47415217 -0.27557442 0.02300000
v -0.47415217 -0.27557442 0.15400000
v -0.47630112 -0.26956850 0.15400000
f 684 685 686 687
v -0.47630112 -0.26956850 0.15400000
v -0.47415217 -0.27557442 0.15400000
v -0.45506562 -0.26298222 0.18000000
v -0.45681784 -0.25808509 0.18000000
f 688 689 690 691
v 0.00000000 0.00000000 0.18000000
v -0.45681784 -0.25808509 0.18000000
v -0.45506562 -0.26298222 0.18000000
f 692 693 694
v -0.47415217 -0.27557442 0.02300000
v -0.47142488 -0.28134079 0.02300000
v -0.47142488 -0.28134079 0.15400000
v -0.47415217 -0.27557442 0.15400000
f 695 696 697 698
v -0.47415217 -0.27557442 0.15400000
v -0.47142488 -0.28134079 0.15400000
v -0.45284183 -0.26768403 0.18000000
v -0.45506562 -0.26298222 0.18000000
f 699 700 701 702
v 0.00000000 0.00000000 0.18000000
v -0.45506562 -0.26298222 0.18000000
v -0.45284183 -0.26768403 0.18000000
f 703 704 705
v -0.47142488 -0.28134079 0.02300000
v -0.46814552 -0.28681207 0.02300000
v -0.46814552 -0.28681207 0.15400000
v -0.47142488 -0.28134079 0.15400000
f 706 707 708 709
v -0.47142488 -0.28134079 0.15400000
v -0.46814552 -0.28681207 0.15400000
v -0.45016789 -0.27214522 0.18000000
v -0.45284183 -0.26768403 0.18000000
f 710 711 712 713
v 0.00000000 0.00000000 0.18000000
v -0.45284183 -0.26768403 0.18000000
v -0.45016789 -0.27214522 0.18000000
f 714 715 716
v -0.46814552 -0.28681207 0.02300000
v -0.46434568 -0.29193556 0.02300000
v -0.46434568 -0.29193556 0.15400000
v -0.46814552 -0.28681207 0.15400000
f 717 718 719 720
v -0.46814552 -0.28681207 0.15400000
v -0.46434568 -0.29193556 0.15400000
v -0.44706955 -0.27632284 0.18000000
v -0.45016789 -0.27214522 0.18000000
f 721 722 723 724
v 0.00000000 0.00000000 0.18000000
v -0.45016789 -0.27214522 0.18000000
v -0.44706955 -0.27632284 0.18000000
f 725 726 727
v -0.46434568 -0.29193556 0.02300000
v -0.46006194 -0.29666194 0.02300000
v -0.46006194 -0.29666194 0.15400000
v -0.46434568 -0.29193556 0.15400000
f 728 729 730 731
v -0.46434568 -0.29193556 0.15400000
v -0.46006194 -0.29666194 0.15400000
v -0.44357666 -0.28017666 0.18000000
v -0.44706955 -0.27632284 0.18000000
f 732 733 734 735
v 0.00000000 0.00000000 0.18000000
v -0.44706955 -0.27632284 0.18000000
v -0.44357666 -0.28017666 0.18000000
f 736 737 738
v -0.46006194 -0.29666194 0.02300000
v -0.45533556 -0.30094568 0.02300000
v -0.45533556 -0.30094568 0.15400000
v -0.46006194 -0.29666194 0.15400000
f 739 740 741 742
v -0.46006194 -0.29666194 0.15400000
v -0.45533556 -0.30094568 0.15400000
v -0.43972284 -0.28366955 0.18000000
v -0.44357666 -0.28017666 0.18000000
f 743 744 745 746
v 0.00000000 0.00000000 0.18000000
v -0.44357666 -0.28017666 0.18000000
v -0.43972284 -0.28366955 0.18000000
f 747 748 749
v -0.45533556 -0.30094568 0.02300000
v -0.45021207 -0.30474552 0.02300000
v -0.45021207 -0.30474552 0.15400000
v -0.45533556 -0.30094568 0.15400000
f 750 751 752 753
v -0.45533556 -0.30094568 0.15400000
v -0.45021207 -0.30474552 0.15400000
v -0.43554522 -0.28676789 0.18000000
v -0.43972284 -0.28366955 0.18000000
f 754 755 756 757
v 0.00000000 0.00000000 0.18000000
v -0.43972284 -0.28366955 0.18000000
v -0.43554522 -0.28676789 0.18000000
f 758 759 760
v -0.45021207 -0.30474552 0.02300000
v -0.44474079 -0.30802488 0.02300000
v -0.44474079 -0.30802488 0.15400000
v -0.45021207 -0.30474552 0.15400000
f 761 762 763 764
v -0.45021207 -0.30474552 0.15400000
v -0.44474079 -0.30802488 0.15400000
v -0.43108403 -0.28944183 0.18000000
v -0.43554522 -0.28676789 0.18000000
f 765 766 767 768
v 0.00000000 0.00000000 0.18000000
v -0.43554522 -0.28676789 0.18000000
v -0.43108403 -0.28944183 0.18000000
f 769 770 771
v -0.44474079 -0.30802488 0.02300000
v -0.43897442 -0.31075217 0.02300000
v -0.43897442 -0.31075217 0.15400000
v -0.44474079 -0.30802488 0.15400000
f 772 773 774 775
v -0.44474079 -0.30802488 0.15400000
v -0.43897442 -0.31075217 0.15400000
v -0.42638222 -0.29166562 0.18000000
v -0.43108403 -0.28944183 0.18000000
f 776 777 778 779
v 0.00000000 0.00000000 0.18000000
v -0.43108403 -0.28944183 0.18000000
v -0.42638222 -0.29166562 0.18000000
f 780 781 782
v -0.43897442 -0.31075217 0.02300000
v -0.43296850 -0.31290112 0.02300000
v -0.43296850 -0.31290112 0.15400000
v -0.43897442 -0.31075217 0.15400000
f 783 784 785 786
v -0.43897442 -0.31075217 0.15400000
v -0.43296850 -0.31290112 0.15400000
v -0.42148509 -0.29341784 0.18000000
v -0.42638222 -0.29166562 0.18000000
f 787 788 789 790
v 0.00000000 0.00000000 0.18000000
v -0.42638222 -0.29166562 0.18000000
v -0.42148509 -0.29341784 0.18000000
f 791 792 793
v -0.43296850 -0.31290112 0.02300000
v -0.42678087 -0.31445104 0.02300000
v -0.42678087 -0.31445104 0.15400000
v -0.43296850 -0.31290112 0.15400000
f 794 795 796 797
v -0.43296850 -0.31290112 0.15400000
v -0.42678087 -0.31445104 0.15400000
v -0.41643979 -0.29468162 0.18000000
v -0.42148509 -0.29341784 0.18000000
f 798 799 800 801
v 0.00000000 0.00000000 0.18000000
v -0.42148509 -0.29341784 0.18000000
v -0.41643979 -0.29468162 0.18000000
f 802 803 804
v -0.42678087 -0.31445104 0.02300000
v -0.42047111 -0.31538701 0.02300000
v -0.42047111 -0.31538701 0.15400000
v -0.42678087 -0.31445104 0.15400000
f 805 806 807 808
v -0.42678087 -0.31445104 0.15400000
v -0.42047111 -0.31538701 0.15400000
v -0.41129491 -0.29544479 0.18000000
v -0.41643979 -0.29468162 0.18000000
f 809 810 811 812
v 0.00000000 0.00000000 0.18000000
v -0.41643979 -0.29468162 0.18000000
v -0.41129491 -0.29544479 0.18000000
f 813 814 815
v -0.42047111 -0.31538701 0.02300000
v -0.41410000 -0.31570000 0.02300000
v -0.41410000 -0.31570000 0.15400000
v -0.42047111 -0.31538701 0.15400000
f 816 817 818 819
v -0.42047111 -0.31538701 0.15400000
v -0.41410000 -0.31570000 0.15400000
v -0.40610000 -0.29570000 0.18000000
v -0.41129491 -0.29544479 0.18000000
f 820 821 822 823
v 0.00000000 0.00000000 0.18000000
v -0.41129491 -0.29544479 0.18000000
v -0.40610000 -0.29570000 0.18000000
f 824 825 826
v -0.41410000 -0.31570000 0.02300000
v -0.40374750 -0.31570000 0.02300000
v -0.40374750 -0.31570000 0.15400000
v -0.41410000 -0.31570000 0.15400000
f 827 828 829 830
v -0.40374750 -0.31570000 0.02300000
v -0.39339500 -0.31570000 0.02300000
v -0.39339500 -0.31570000 0.15400000
v -0.40374750 -0.31570000 0.15400000
f 831 832 833 834
v -0.39339500 -0.31570000 0.02300000
v -0.38304250 -0.31570000 0.02300000
v -0.38304250 -0.31570000 0.15400000
v -0.39339500 -0.31570000 0.15400000
f 835 836 837 838
v -0.38304250 -0.31570000 0.02300000
v -0.37269000 -0.31570000 0.02300000
v -0.37269000 -0.31570000 0.15400000
v -0.38304250 -0.31570000 0.15400000
f 839 840 841 842
v -0.37269000 -0.31570000 0.02300000
v -0.36233750 -0.31570000 0.02300000
v -0.36233750 -0.31570000 0.15400000
v -0.37269000 -0.31570000 0.15400000
f 843 844 845 846
v -0.36233750 -0.31570000 0.02300000
v -0.35198500 -0.31570000 0.02300000
v -0.35198500 -0.31570000 0.15400000
v -0.36233750 -0.31570000 0.15400000
f 847 848 849 850
v -0.35198500 -0.31570000 0.02300000
v -0.34163250 -0.31570000 0.02300000
v -0.34163250 -0.31570000 0.15400000
v -0.35198500 -0.31570000 0.15400000
f 851 852 853 854
v -0.34163250 -0.31570000 0.02300000
v -0.33128000 -0.31570000 0.02300000
v -0.33128000 -0.31570000 0.15400000
v -0.34163250 -0.31570000 0.15400000
f 855 856 857 858
v -0.33128000 -0.31570000 0.02300000
v -0.32092750 -0.31570000 0.02300000
v -0.32092750 -0.31570000 0.15400000
v -0.33128000 -0.31570000 0.15400000
f 859 860 861 862
v -0.32092750 -0.31570000 0.02300000
v -0.31057500 -0.31570000 0.02300000
v -0.31057500 -0.31570000 0.15400000
v -0.32092750 -0.31570000 0.15400000
f 863 864 865 866
v -0.31057500 -0.31570000 0.02300000
v -0.30022250 -0.31570000 0.02300000
v -0.30022250 -0.31570000 0.15400000
v -0.31057500 -0.31570000 0.15400000
f 867 868 869 870
v -0.30022250 -0.31570000 0.02300000
v -0.28987000 -0.31570000 0.02300000
v -0.28987000 -0.31570000 0.15400000
v -0.30022250 -0.31570000 0.15400000
f 871 872 873 874
v -0.28987000 -0.31570000 0.02300000
v -0.27951750 -0.31570000 0.02300000
v -0.27951750 -0.31570000 0.15400000
v -0.28987000 -0.31570000 0.15400000
f 875 876 877 878
v -0.27951750 -0.31570000 0.02300000
v -0.26916500 -0.31570000 0.02300000
v -0.26916500 -0.31570000 0.15400000
v -0.27951750 -0.31570000 0.15400000
f 879 880 881 882
v -0.26916500 -0.31570000 0.02300000
v -0.25881250 -0.31570000 0.02300000
v -0.25881250 -0.31570000 0.15400000
v -0.26916500 -0.31570000 0.15400000
f 883 884 885 886
v -0.25881250 -0.31570000 0.02300000
v -0.24846000 -0.31570000 0.02300000
v -0.24846000 -0.31570000 0.15400000
v -0.25881250 -0.31570000 0.15400000
f 887 888 889 890
v -0.24846000 -0.31570000 0.02300000
v -0.23810750 -0.31570000 0.02300000
v -0.23810750 -0.31570000 0.15400000
v -0.24846000 -0.31570000 0.15400000
f 891 892 893 894
v -0.23810750 -0.31570000 0.02300000
v -0.22775500 -0.31570000 0.02300000
v -0.22775500 -0.31570000 0.15400000
v -0.23810750 -0.31570000 0.15400000
f 895 896 897 898
v -0.22775500 -0.31570000 0.02300000
v -0.21740250 -0.31570000 0.02300000
v -0.21740250 -0.31570000 0.15400000
v -0.22775500 -0.31570000 0.15400000
f 899 900 901 902
v -0.21740250 -0.31570000 0.02300000
v -0.20705000 -0.31570000 0.02300000
v -0.20705000 -0.31570000 0.15400000
v -0.21740250 -0.31570000 0.15400000
f 903 904 905 906
v -0.20705000 -0.31570000 0.02300000
v -0.19669750 -0.31570000 0.02300000
v -0.19669750 -0.31570000 0.15400000
v -0.20705000 -0.31570000 0.15400000
f 907 908 909 910
v -0.19669750 -0.31570000 0.02300000
v -0.18634500 -0.31570000 0.02300000
v -0.18634500 -0.31570000 0.15400000
v -0.19669750 -0.31570000 0.15400000
f 911 912 913 914
v -0.18634500 -0.31570000 0.02300000
v -0.17599250 -0.31570000 0.02300000
v -0.17599250 -0.31570000 0.15400000
v -0.18634500 -0.31570000 0.15400000
f 915 916 917 918
v -0.17599250 -0.31570000 0.02300000
v -0.16564000 -0.31570000 0.02300000
v -0.16564000 -0.31570000 0.15400000
v -0.17599250 -0.31570000 0.15400000
f 919 920 921 922
v -0.16564000 -0.31570000 0.02300000
v -0.15528750 -0.31570000 0.02300000
v -0.15528750 -0.31570000 0.15400000
v -0.16564000 -0.31570000 0.15400000
f 923 924 925 926
v -0.15528750 -0.31570000 0.02300000
v -0.14493500 -0.31570000 0.02300000
v -0.14493500 -0.31570000 0.15400000
v -0.15528750 -0.31570000 0.15400000
f 927 928 929 930
v -0.14493500 -0.31570000 0.02300000
v -0.13458250 -0.31570000 0.02300000
v -0.13458250 -0.31570000 0.15400000
v -0.14493500 -0.31570000 0.15400000
f 931 932 933 934
v -0.13458250 -0.31570000 0.02300000
v -0.12423000 -0.31570000 0.02300000
v -0.12423000 -0.31570000 0.15400000
v -0.13458250 -0.31570000 0.15400000
f 935 936 937 938
v -0.12423000 -0.31570000 0.02300000
v -0.11387750 -0.31570000 0.02300000
v -0.11387750 -0.31570000 0.15400000
v -0.12423000 -0.31570000 0.15400000
f 939 940 941 942
v -0.11387750 -0.31570000 0.02300000
v -0.10352500 -0.31570000 0.02300000
v -0.10352500 -0.31570000 0.15400000
v -0.11387750 -0.31570000 0.15400000
f 943 944 945 946
v -0.10352500 -0.31570000 0.02300000
v -0.09317250 -0.31570000 0.02300000
v -0.09317250 -0.31570000 0.15400000
v -0.10352500 -0.31570000 0.15400000
f 947 948 949 950
v -0.09317250 -0.31570000 0.02300000
v -0.08282000 -0.31570000 0.12530659
v -0.08282000 -0.31570000 0.15400000
v -0.09317250 -0.31570000 0.15400000
f 951 952 953 954
v -0.08282000 -0.31570000 0.12530659
v -0.07246750 -0.31570000 0.14128775
v -0.07246750 -0.31570000 0.15400000
v -0.08282000 -0.31570000 0.15400000
f 955 956 957 958
v -0.07246750 -0.31570000 0.14128775
v -0.06211500 -0.31570000 0.15221508
v -0.06211500 -0.31570000 0.15400000
v -0.07246750 -0.31570000 0.15400000
f 959 960 961 962
v -0.06211500 -0.31570000 0.15221508
v -0.05176250 -0.31570000 0.15400000
v -0.05176250 -0.31570000 0.15400000
v -0.06211500 -0.31570000 0.15400000
f 963 964 965 966
v 0.05176250 -0.31570000 0.15400000
v 0.06211500 -0.31570000 0.15221508
v 0.06211500 -0.31570000 0.15400000
v 0.05176250 -0.31570000 0.15400000
f 967 968 969 970
v 0.06211500 -0.31570000 0.15221508
v 0.07246750 -0.31570000 0.14128775
v 0.07246750 -0.31570000 0.15400000
v 0.06211500 -0.31570000 0.15400000
f 971 972 973 974
v 0.07246750 -0.31570000 0.14128775
v 0.08282000 -0.31570000 0.12530659
v 0.08282000 -0.31570000 0.15400000
v 0.07246750 -0.31570000 0.15400000
f 975 976 977 978
v 0.08282000 -0.31570000 0.12530659
v 0.09317250 -0.31570000 0.02300000
v 0.09317250 -0.31570000 0.15400000
v 0.08282000 -0.31570000 0.15400000
f 979 980 981 982
v 0.09317250 -0.31570000 0.02300000
v 0.10352500 -0.31570000 0.02300000
v 0.10352500 -0.31570000 0.15400000
v 0.09317250 -0.31570000 0.15400000
f 983 984 985 986
v 0.10352500 -0.31570000 0.02300000
v 0.11387750 -0.31570000 0.02300000
v 0.11387750 -0.31570000 0.15400000
v 0.10352500 -0.31570000 0.15400000
f 987 988 989 990
v 0.11387750 -0.31570000 0.02300000
v 0.12423000 -0.31570000 0.02300000
v 0.12423000 -0.31570000 0.15400000
v 0.11387750 -0.31570000 0.15400000
f 991 992 993 994
v 0.12423000 -0.31570000 0.02300000
v 0.13458250 -0.31570000 0.02300000
v 0.13458250 -0.31570000 0.15400000
v 0.12423000 -0.31570000 0.15400000
f 995 996 997 998
v 0.13458250 -0.31570000 0.02300000
v 0.14493500 -0.31570000 0.02300000
v 0.14493500 -0.31570000 0.15400000
v 0.13458250 -0.31570000 0.15400000
f 999 1000 1001 1002
v 0.14493500 -0.31570000 0.02300000
v 0.15528750 -0.31570000 0.02300000
v 0.15528750 -0.31570000 0.15400000
v 0.14493500 -0.31570000 0.15400000
f 1003 1004 1005 1006
v 0.15528750 -0.31570000 0.02300000
v 0.16564000 -0.31570000 0.02300000
v 0.16564000 -0.31570000 0.15400000
v 0.15528750 -0.31570000 0.15400000
f 1007 1008 1009 1010
v 0.16564000 -0.31570000 0.02300000
v 0.17599250 -0.31570000 0.02300000
v 0.17599250 -0.31570000 0.15400000
v 0.16564000 -0.31570000 0.15400000
f 1011 1012 1013 1014
v 0.17599250 -0.31570000 0.02300000
v 0.18634500 -0.31570000 0.02300000
v 0.18634500 -0.31570000 0.15400000
v 0.17599250 -0.31570000 0.15400000
f 1015 1016 1017 1018
v 0.18634500 -0.31570000 0.02300000
v 0.19669750 -0.31570000 0.02300000
v 0.19669750 -0.31570000 0.15400000
v 0.18634500 -0.31570000 0.15400000
f 1019 1020 1021 1022
v 0.19669750 -0.31570000 0.02300000
v 0.20705000 -0.31570000 0.02300000
v 0.20705000 -0.31570000 0.15400000
v 0.19669750 -0.31570000 0.15400000
f 1023 1024 1025 1026
v 0.20705000 -0.31570000 0.02300000
v 0.21740250 -0.31570000 0.02300000
v 0.21740250 -0.31570000 0.15400000
v 0.20705000 -0.31570000 0.15400000
f 1027 1028 1029 1030
v 0.21740250 -0.31570000 0.02300000
v 0.22775500 -0.31570000 0.02300000
v 0.22775500 -0.31570000 0.15400000
v 0.21740250 -0.31570000 0.15400000
f 1031 1032 1033 1034
v 0.22775500 -0.31570000 0.02300000
v 0.23810750 -0.31570000 0.02300000
v 0.23810750 -0.31570000 0.15400000
v 0.22775500 -0.31570000 0.15400000
f 1035 1036 1037 1038
v 0.23810750 -0.31570000 0.02300000
v 0.24846000 -0.31570000 0.02300000
v 0.24846000 -0.31570000 0.15400000
v 0.23810750 -0.31570000 0.15400000
f 1039 1040 1041 1042
v 0.24846000 -0.31570000 0.02300000
v 0.25881250 -0.31570000 0.02300000
v 0.25881250 -0.31570000 0.15400000
v 0.24846000 -0.31570000 0.15400000
f 1043 1044 1045 1046
v 0.25881250 -0.31570000 0.02300000
v 0.26916500 -0.31570000 0.02300000
v 0.26916500 -0.31570000 0.15400000
v 0.25881250 -0.31570000 0.15400000
f 1047 1048 1049 1050
v 0.26916500 -0.31570000 0.02300000
v 0.27951750 -0.31570000 0.02300000
v 0.27951750 -0.31570000 0.15400000
v 0.26916500 -0.31570000 0.15400000
f 1051 1052 1053 1054
v 0.27951750 -0.31570000 0.02300000
v 0.28987000 -0.31570000 0.02300000
v 0.28987000 -0.31570000 0.15400000
v 0.27951750 -0.31570000 0.15400000
f 1055 1056 1057 1058
v 0.28987000 -0.31570000 0.02300000
v 0.30022250 -0.31570000 0.02300000
v 0.30022250 -0.31570000 0.15400000
v 0.28987000 -0.31570000 0.15400000
f 1059 1060 1061 1062
v 0.30022250 -0.31570000 0.02300000
v 0.31057500 -0.31570000 0.02300000
v 0.31057500 -0.31570000 0.15400000
v 0.30022250 -0.31570000 0.15400000
f 1063 1064 1065 1066
v 0.31057500 -0.31570000 0.02300000
v 0.32092750 -0.31570000 0.02300000
v 0.32092750 -0.31570000 0.15400000
v 0.31057500 -0.31570000 0.15400000
f 1067 1068 1069 1070
v 0.32092750 -0.31570000 0.02300000
v 0.33128000 -0.31570000 0.02300000
v 0.33128000 -0.31570000 0.15400000
v 0.32092750 -0.31570000 0.15400000
f 1071 1072 1073 1074
v 0.33128000 -0.31570000 0.02300000
v 0.34163250 -0.31570000 0.02300000
v 0.34163250 -0.31570000 0.15400000
v 0.33128000 -0.31570000 0.15400000
f 1075 1076 1077 1078
v 0.34163250 -0.31570000 0.02300000
v 0.35198500 -0.31570000 0.02300000
v 0.35198500 -0.31570000 0.15400000
v 0.34163250 -0.31570000 0.15400000
f 1079 1080 1081 1082
v 0.35198500 -0.31570000 0.02300000
v 0.36233750 -0.31570000 0.02300000
v 0.36233750 -0.31570000 0.15400000
v 0.35198500 -0.31570000 0.15400000
f 1083 1084 1085 1086
v 0.36233750 -0.31570000 0.02300000
v 0.37269000 -0.31570000 0.02300000
v 0.37269000 -0.31570000 0.15400000
v 0.36233750 -0.31570000 0.15400000
f 1087 1088 1089 1090
v 0.37269000 -0.31570000 0.02300000
v 0.38304250 -0.31570000 0.02300000
v 0.38304250 -0.31570000 0.15400000
v 0.37269000 -0.31570000 0.15400000
f 1091 1092 1093 1094
v 0.38304250 -0.31570000 0.02300000
v 0.39339500 -0.31570000 0.02300000
v 0.39339500 -0.31570000 0.15400000
v 0.38304250 -0.31570000 0.15400000
f 1095 1096 1097 1098
v 0.39339500 -0.31570000 0.02300000
v 0.40374750 -0.31570000 0.02300000
v 0.40374750 -0.31570000 0.15400000
v 0.39339500 -0.31570000 0.15400000
f 1099 1100 1101 1102
v 0.40374750 -0.31570000 0.02300000
v 0.41410000 -0.31570000 0.02300000
v 0.41410000 -0.31570000 0.15400000
v 0.40374750 -0.31570000 0.15400000
f 1103 1104 1105 1106
v -0.41410000 -0.31570000 0.15400000
v 0.41410000 -0.31570000 0.15400000
v 0.40610000 -0.29570000 0.18000000
v -0.40610000 -0.29570000 0.18000000
f 1107 1108 1109 1110
v 0.00000000 0.00000000 0.18000000
v -0.40610000 -0.29570000 0.18000000
v 0.40610000 -0.29570000 0.18000000
f 1111 1112 1113
v 0.41410000 -0.31570000 0.02300000
v 0.42047111 -0.31538701 0.02300000
v 0.42047111 -0.31538701 0.15400000
v 0.41410000 -0.31570000 0.15400000
f 1114 1115 1116 1117
v 0.41410000 -0.31570000 0.15400000
v 0.42047111 -0.31538701 0.15400000
v 0.41129491 -0.29544479 0.18000000
v 0.40610000 -0.29570000 0.18000000
f 1118 1119 1120 1121
v 0.00000000 0.00000000 0.18000000
v 0.40610000 -0.29570000 0.18000000
v 0.41129491 -0.29544479 0.18000000
f 1122 1123 1124
v 0.42047111 -0.31538701 0.02300000
v 0.42678087 -0.31445104 0.02300000
v 0.42678087 -0.31445104 0.15400000
v 0.42047111 -0.31538701 0.15400000
f 1125 1126 1127 1128
v 0.42047111 -0.31538701 0.15400000
v 0.42678087 -0.31445104 0.15400000
v 0.41643979 -0.29468162 0.18000000
v 0.41129491 -0.29544479 0.18000000
f 1129 1130 1131 1132
v 0.00000000 0.00000000 0.18000000
v 0.41129491 -0.29544479 0.18000000
v 0.41643979 -0.29468162 0.18000000
f 1133 1134 1135
v 0.42678087 -0.31445104 0.02300000
v 0.43296850 -0.31290112 0.02300000
v 0.43296850 -0.31290112 0.15400000
v 0.42678087 -0.31445104 0.15400000
f 1136 1137 1138 1139
v 0.42678087 -0.31445104 0.15400000
v 0.43296850 -0.31290112 0.15400000
v 0.42148509 -0.29341784 0.18000000
v 0.41643979 -0.29468162 0.18000000
f 1140 1141 1142 1143
v 0.00000000 0.00000000 0.18000000
v 0.41643979 -0.29468162 0.18000000
v 0.42148509 -0.29341784 0.18000000
f 1144 1145 1146
v 0.43296850 -0.31290112 0.02300000
v 0.43897442 -0.31075217 0.02300000
v 0.43897442 -0.31075217 0.15400000
v 0.43296850 -0.31290112 0.15400000
f 1147 1148 1149 1150
v 0.43296850 -0.31290112 0.15400000
v 0.43897442 -0.31075217 0.15400000
v 0.42638222 -0.29166562 0.18000000
v 0.42148509 -0.29341784 0.18000000
f 1151 1152 1153 1154
v 0.00000000 0.00000000 0.18000000
v 0.42148509 -0.29341784 0.18000000
v 0.42638222 -0.29166562 0.18000000
f 1155 1156 1157
v 0.43897442 -0.31075217 0.02300000
v 0.44474079 -0.30802488 0.02300000
v 0.44474079 -0.30802488 0.15400000
v 0.43897442 -0.31075217 0.15400000
f 1158 1159 1160 1161
v 0.43897442 -0.31075217 0.15400000
v 0.44474079 -0.30802488 0.15400000
v 0.43108403 -0.28944183 0.18000000
v 0.42638222 -0.29166562 0.18000000
f 1162 1163 1164 1165
v 0.00000000 0.00000000 0.18000000
v 0.42638222 -0.29166562 0.18000000
v 0.43108403 -0.28944183 0.18000000
f 1166 1167 1168
v 0.44474079 -0.30802488 0.02300000
v 0.45021207 -0.30474552 0.02300000
v 0.45021207 -0.30474552 0.15400000
v 0.44474079 -0.30802488 0.15400000
f 1169 1170 1171 1172
v 0.44474079 -0.30802488 0.15400000
v 0.45021207 -0.30474552 0.15400000
v 0.43554522 -0.28676789 0.18000000
v 0.43108403 -0.28944183 0.18000000
f 1173 1174 1175 1176
v 0.00000000 0.00000000 0.18000000
v 0.43108403 -0.28944183 0.18000000
v 0.43554522 -0.28676789 0.18000000
f 1177 1178 1179
v 0.45021207 -0.30474552 0.02300000
v 0.45533556 -0.30094568 0.02300000
v 0.45533556 -0.30094568 0.15400000
v 0.45021207 -0.30474552 0.15400000
f 1180 1181 1182 1183
v 0.45021207 -0.30474552 0.15400000
v 0.45533556 -0.30094568 0.15400000
v 0.43972284 -0.28366955 0.18000000
v 0.43554522 -0.28676789 0.18000000
f 1184 1185 1186 1187
v 0.00000000 0.00000000 0.18000000
v 0.43554522 -0.28676789 0.18000000
v 0.43972284 -0.28366955 0.18000000
f 1188 1189 1190
v 0.45533556 -0.30094568 0.02300000
v 0.46006194 -0.29666194 0.02300000
v 0.46006194 -0.29666194 0.15400000
v 0.45533556 -0.30094568 0.15400000
f 1191 1192 1193 1194
v 0.45533556 -0.30094568 0.15400000
v 0.46006194 -0.29666194 0.15400000
v 0.44357666 -0.28017666 0.18000000
v 0.43972284 -0.28366955 0.18000000
f 1195 1196 1197 1198
v 0.00000000 0.00000000 0.18000000
v 0.43972284 -0.28366955 0.18000000
v 0.44357666 -0.28017666 0.18000000
f 1199 1200 1201
v 0.46006194 -0.29666194 0.02300000
v 0.46434568 -0.29193556 0.02300000
v 0.46434568 -0.29193556 0.15400000
v 0.46006194 -0.29666194 0.15400000
f 1202 1203 1204 1205
v 0.46006194 -0.29666194 0.15400000
v 0.46434568 -0.29193556 0.15400000
v 0.44706955 -0.27632284 0.18000000
v 0.44357666 -0.28017666 0.18000000
f 1206 1207 1208 1209
v 0.00000000 0.00000000 0.18000000
v 0.44357666 -0.28017666 0.18000000
v 0.44706955 -0.27632284 0.18000000
f 1210 1211 1212
v 0.46434568 -0.29193556 0.02300000
v 0.46814552 -0.28681207 0.02300000
v 0.46814552 -0.28681207 0.15400000
v 0.46434568 -0.29193556 0.15400000
f 1213 1214 1215 1216
v 0.46434568 -0.29193556 0.15400000
v 0.46814552 -0.28681207 0.15400000
v 0.45016789 -0.27214522 0.18000000
v 0.44706955 -0.27632284 0.18000000
f 1217 1218 1219 1220
v 0.00000000 0.00000000 0.18000000
v 0.44706955 -0.27632284 0.18000000
v 0.45016789 -0.27214522 0.18000000
f 1221 1222 1223
v 0.46814552 -0.28681207 0.02300000
v 0.47142488 -0.28134079 0.02300000
v 0.47142488 -0.28134079 0.15400000
v 0.46814552 -0.28681207 0.15400000
f 1224 1225 1226 1227
v 0.46814552 -0.28681207 0.15400000
v 0.47142488 -0.28134079 0.15400000
v 0.45284183 -0.26768403 0.18000000
v 0.45016789 -0.27214522 0.18000000
f 1228 1229 1230 1231
v 0.00000000 0.00000000 0.18000000
v 0.45016789 -0.27214522 0.18000000
v 0.45284183 -0.26768403 0.18000000
f 1232 1233 1234
v 0.47142488 -0.28134079 0.02300000
v 0.47415217 -0.27557442 0.02300000
v 0.47415217 -0.27557442 0.15400000
v 0.47142488 -0.28134079 0.15400000
f 1235 1236 1237 1238
v 0.47142488 -0.28134079 0.15400000
v 0.47415217 -0.27557442 0.15400000
v 0.45506562 -0.26298222 0.18000000
v 0.45284183 -0.26768403 0.18000000
f 1239 1240 1241 1242
v 0.00000000 0.00000000 0.18000000
v 0.45284183 -0.26768403 0.18000000
v 0.45506562 -0.26298222 0.18000000
f 1243 1244 1245
v 0.47415217 -0.27557442 0.02300000
v 0.47630112 -0.26956850 0.02300000
v 0.47630112 -0.26956850 0.15400000
v 0.47415217 -0.27557442 0.15400000
f 1246 1247 1248 1249
v 0.47415217 -0.27557442 0.15400000
v 0.47630112 -0.26956850 0.15400000
v 0.45681784 -0.25808509 0.18000000
v 0.45506562 -0.26298222 0.18000000
f 1250 1251 1252 1253
v 0.00000000 0.00000000 0.18000000
v 0.45506562 -0.26298222 0.18000000
v 0.45681784 -0.25808509 0.18000000
f 1254 1255 1256
v 0.47630112 -0.26956850 0.02300000
v 0.47785104 -0.26338087 0.02300000
v 0.47785104 -0.26338087 0.15400000
v 0.47630112 -0.26956850 0.15400000
f 1257 1258 1259 1260
v 0.47630112 -0.26956850 0.15400000
v 0.47785104 -0.26338087 0.15400000
v 0.45808162 -0.25303979 0.18000000
v 0.45681784 -0.25808509 0.18000000
f 1261 1262 1263 1264
v 0.00000000 0.00000000 0.18000000
v 0.45681784 -0.25808509 0.18000000
v 0.45808162 -0.25303979 0.18000000
f 1265 1266 1267
v 0.47785104 -0.26338087 0.02300000
v 0.47878701 -0.25707111 0.02300000
v 0.47878701 -0.25707111 0.15400000
v 0.47785104 -0.26338087 0.15400000
f 1268 1269 1270 1271
v 0.47785104 -0.26338087 0.15400000
v 0.47878701 -0.25707111 0.15400000
v 0.45884479 -0.24789491 0.18000000
v 0.45808162 -0.25303979 0.18000000
f 1272 1273 1274 1275
v 0.00000000 0.00000000 0.18000000
v 0.45808162 -0.25303979 0.18000000
v 0.45884479 -0.24789491 0.18000000
f 1276 1277 1278
v 0.47878701 -0.25707111 0.02300000
v 0.47910000 -0.25070000 0.02300000
v 0.47910000 -0.25070000 0.15400000
v 0.47878701 -0.25707111 0.15400000
f 1279 1280 1281 1282
v 0.47878701 -0.25707111 0.15400000
v 0.47910000 -0.25070000 0.15400000
v 0.45910000 -0.24270000 0.18000000
v 0.45884479 -0.24789491 0.18000000
f 1283 1284 1285 1286
v 0.00000000 0.00000000 0.18000000
v 0.45884479 -0.24789491 0.18000000
v 0.45910000 -0.24270000 0.18000000
f 1287 1288 1289
v 0.47910000 -0.25070000 0.02300000
v 0.47910000 0.25070000 0.02300000
v 0.47910000 0.25070000 0.15400000
v 0.47910000 -0.25070000 0.15400000
f 1290 1291 1292 1293
v 0.47910000 -0.25070000 0.15400000
v 0.47910000 0.25070000 0.15400000
v 0.45910000 0.24270000 0.18000000
v 0.45910000 -0.24270000 0.18000000
f 1294 1295 1296 1297
v 0.00000000 0.00000000 0.18000000
v 0.45910000 -0.24270000 0.18000000
v 0.45910000 0.24270000 0.18000000
f 1298 1299 1300
