v -0.28500000 -0.27500000 0.04000000
v -0.28500000 -0.27500000 0.41400000
v -0.34500000 -0.27500000 0.39800000
v -0.44500000 -0.27500000 0.27600000
v -0.44500000 -0.27500000 0.04000000
f 1 2 3 4 5
v -0.44500000 0.27500000 0.04000000
v -0.44500000 0.27500000 0.27600000
v -0.34500000 0.27500000 0.39800000
v -0.28500000 0.27500000 0.41400000
v -0.28500000 0.27500000 0.04000000
f 6 7 8 9 10
v -0.44500000 -0.27500000 0.04000000
v -0.44500000 -0.27500000 0.27600000
v -0.44500000 0.27500000 0.27600000
v -0.44500000 0.27500000 0.04000000
f 11 12 13 14
v -0.44500000 -0.27500000 0.27600000
v -0.34500000 -0.27500000 0.39800000
v -0.34500000 0.27500000 0.39800000
v -0.44500000 0.27500000 0.27600000
f 15 16 17 18
v -0.34500000 -0.27500000 0.39800000
v -0.28500000 -0.27500000 0.41400000
v -0.28500000 0.27500000 0.41400000
v -0.34500000 0.27500000 0.39800000
f 19 20 21 22
v -0.28500000 -0.27500000 0.41400000
v -0.28500000 -0.27500000 0.04000000
v -0.28500000 0.27500000 0.04000000
v -0.28500000 0.27500000 0.41400000
f 23 24 25 26
v -0.28500000 -0.27500000 0.04000000
v -0.44500000 -0.27500000 0.04000000
v -0.44500000 0.27500000 0.04000000
v -0.28500000 0.27500000 0.04000000
f 27 28 29 30
