v 0.00000000 0.00000000 0.18200000
v 0.44900000 0.23500000 0.18200000
v 0.44875924 0.23990086 0.18200000
f 1 2 3
v 0.44900000 0.23500000 0.18000000
v 0.44875924 0.23990086 0.18000000
v 0.44875924 0.23990086 0.18200000
v 0.44900000 0.23500000 0.18200000
f 4 5 6 7
v 0.00000000 0.00000000 0.18200000
v 0.44875924 0.23990086 0.18200000
v 0.44803926 0.24475452 0.18200000
f 8 9 10
v 0.44875924 0.23990086 0.18000000
v 0.44803926 0.24475452 0.18000000
v 0.44803926 0.24475452 0.18200000
v 0.44875924 0.23990086 0.18200000
f 11 12 13 14
v 0.00000000 0.00000000 0.18200000
v 0.44803926 0.24475452 0.18200000
v 0.44684702 0.24951423 0.18200000
f 15 16 17
v 0.44803926 0.24475452 0.18000000
v 0.44684702 0.24951423 0.18000000
v 0.44684702 0.24951423 0.18200000
v 0.44803926 0.24475452 0.18200000
f 18 19 20 21
v 0.00000000 0.00000000 0.18200000
v 0.44684702 0.24951423 0.18200000
v 0.44519398 0.25413417 0.18200000
f 22 23 24
v 0.44684702 0.24951423 0.18000000
v 0.44519398 0.25413417 0.18000000
v 0.44519398 0.25413417 0.18200000
v 0.44684702 0.24951423 0.18200000
f 25 26 27 28
v 0.00000000 0.00000000 0.18200000
v 0.44519398 0.25413417 0.18200000
v 0.44309606 0.25856984 0.18200000
f 29 30 31
v 0.44519398 0.25413417 0.18000000
v 0.44309606 0.25856984 0.18000000
v 0.44309606 0.25856984 0.18200000
v 0.44519398 0.25413417 0.18200000
f 32 33 34 35
v 0.00000000 0.00000000 0.18200000
v 0.44309606 0.25856984 0.18200000
v 0.44057348 0.26277851 0.18200000
f 36 37 38
v 0.44309606 0.25856984 0.18000000
v 0.44057348 0.26277851 0.18000000
v 0.44057348 0.26277851 0.18200000
v 0.44309606 0.25856984 0.18200000
f 39 40 41 42
v 0.00000000 0.00000000 0.18200000
v 0.44057348 0.26277851 0.18200000
v 0.43765052 0.26671966 0.18200000
f 43 44 45
v 0.44057348 0.26277851 0.18000000
v 0.43765052 0.26671966 0.18000000
v 0.43765052 0.26671966 0.18200000
v 0.44057348 0.26277851 0.18200000
f 46 47 48 49
v 0.00000000 0.00000000 0.18200000
v 0.43765052 0.26671966 0.18200000
v 0.43435534 0.27035534 0.18200000
f 50 51 52
v 0.43765052 0.26671966 0.18000000
v 0.43435534 0.27035534 0.18000000
v 0.43435534 0.27035534 0.18200000
v 0.43765052 0.26671966 0.18200000
f 53 54 55 56
v 0.00000000 0.00000000 0.18200000
v 0.43435534 0.27035534 0.18200000
v 0.43071966 0.27365052 0.18200000
f 57 58 59
v 0.43435534 0.27035534 0.18000000
v 0.43071966 0.27365052 0.18000000
v 0.43071966 0.27365052 0.18200000
v 0.43435534 0.27035534 0.18200000
f 60 61 62 63
v 0.00000000 0.00000000 0.18200000
v 0.43071966 0.27365052 0.18200000
v 0.42677851 0.27657348 0.18200000
f 64 65 66
v 0.43071966 0.27365052 0.18000000
v 0.42677851 0.27657348 0.18000000
v 0.42677851 0.27657348 0.18200000
v 0.43071966 0.27365052 0.18200000
f 67 68 69 70
v 0.00000000 0.00000000 0.18200000
v 0.42677851 0.27657348 0.18200000
v 0.42256984 0.27909606 0.18200000
f 71 72 73
v 0.42677851 0.27657348 0.18000000
v 0.42256984 0.27909606 0.18000000
v 0.42256984 0.27909606 0.18200000
v 0.42677851 0.27657348 0.18200000
f 74 75 76 77
v 0.00000000 0.00000000 0.18200000
v 0.42256984 0.27909606 0.18200000
v 0.41813417 0.28119398 0.18200000
f 78 79 80
v 0.42256984 0.27909606 0.18000000
v 0.41813417 0.28119398 0.18000000
v 0.41813417 0.28119398 0.18200000
v 0.42256984 0.27909606 0.18200000
f 81 82 83 84
v 0.00000000 0.00000000 0.18200000
v 0.41813417 0.28119398 0.18200000
v 0.41351423 0.28284702 0.18200000
f 85 86 87
v 0.41813417 0.28119398 0.18000000
v 0.41351423 0.28284702 0.18000000
v 0.41351423 0.28284702 0.18200000
v 0.41813417 0.28119398 0.18200000
f 88 89 90 91
v 0.00000000 0.00000000 0.18200000
v 0.41351423 0.28284702 0.18200000
v 0.40875452 0.28403926 0.18200000
f 92 93 94
v 0.41351423 0.28284702 0.18000000
v 0.40875452 0.28403926 0.18000000
v 0.40875452 0.28403926 0.18200000
v 0.41351423 0.28284702 0.18200000
f 95 96 97 98
v 0.00000000 0.00000000 0.18200000
v 0.40875452 0.28403926 0.18200000
v 0.40390086 0.28475924 0.18200000
f 99 100 101
v 0.40875452 0.28403926 0.18000000
v 0.40390086 0.28475924 0.18000000
v 0.40390086 0.28475924 0.18200000
v 0.40875452 0.28403926 0.18200000
f 102 103 104 105
v 0.00000000 0.00000000 0.18200000
v 0.40390086 0.28475924 0.18200000
v 0.39900000 0.28500000 0.18200000
f 106 107 108
v 0.40390086 0.28475924 0.18000000
v 0.39900000 0.28500000 0.18000000
v 0.39900000 0.28500000 0.18200000
v 0.40390086 0.28475924 0.18200000
f 109 110 111 112
v 0.00000000 0.00000000 0.18200000
v 0.39900000 0.28500000 0.18200000
v -0.39900000 0.28500000 0.18200000
f 113 114 115
v 0.39900000 0.28500000 0.18000000
v -0.39900000 0.28500000 0.18000000
v -0.39900000 0.28500000 0.18200000
v 0.39900000 0.28500000 0.18200000
f 116 117 118 119
v 0.00000000 0.00000000 0.18200000
v -0.39900000 0.28500000 0.18200000
v -0.40390086 0.28475924 0.18200000
f 120 121 122
v -0.39900000 0.28500000 0.18000000
v -0.40390086 0.28475924 0.18000000
v -0.40390086 0.28475924 0.18200000
v -0.39900000 0.28500000 0.18200000
f 123 124 125 126
v 0.00000000 0.00000000 0.18200000
v -0.40390086 0.28475924 0.18200000
v -0.40875452 0.28403926 0.18200000
f 127 128 129
v -0.40390086 0.28475924 0.18000000
v -0.40875452 0.28403926 0.18000000
v -0.40875452 0.28403926 0.18200000
v -0.40390086 0.28475924 0.18200000
f 130 131 132 133
v 0.00000000 0.00000000 0.18200000
v -0.40875452 0.28403926 0.18200000
v -0.41351423 0.28284702 0.18200000
f 134 135 136
v -0.40875452 0.28403926 0.18000000
v -0.41351423 0.28284702 0.18000000
v -0.41351423 0.28284702 0.18200000
v -0.40875452 0.28403926 0.18200000
f 137 138 139 140
v 0.00000000 0.00000000 0.18200000
v -0.41351423 0.28284702 0.18200000
v -0.41813417 0.28119398 0.18200000
f 141 142 143
v -0.41351423 0.28284702 0.18000000
v -0.41813417 0.28119398 0.18000000
v -0.41813417 0.28119398 0.18200000
v -0.41351423 0.28284702 0.18200000
f 144 145 146 147
v 0.00000000 0.00000000 0.18200000
v -0.41813417 0.28119398 0.18200000
v -0.42256984 0.27909606 0.18200000
f 148 149 150
v -0.41813417 0.28119398 0.18000000
v -0.42256984 0.27909606 0.18000000
v -0.42256984 0.27909606 0.18200000
v -0.41813417 0.28119398 0.18200000
f 151 152 153 154
v 0.00000000 0.00000000 0.18200000
v -0.42256984 0.27909606 0.18200000
v -0.42677851 0.27657348 0.18200000
f 155 156 157
v -0.42256984 0.27909606 0.18000000
v -0.42677851 0.27657348 0.18000000
v -0.42677851 0.27657348 0.18200000
v -0.42256984 0.27909606 0.18200000
f 158 159 160 161
v 0.00000000 0.00000000 0.18200000
v -0.42677851 0.27657348 0.18200000
v -0.43071966 0.27365052 0.18200000
f 162 163 164
v -0.42677851 0.27657348 0.18000000
v -0.43071966 0.27365052 0.18000000
v -0.43071966 0.27365052 0.18200000
v -0.42677851 0.27657348 0.18200000
f 165 166 167 168
v 0.00000000 0.00000000 0.18200000
v -0.43071966 0.27365052 0.18200000
v -0.43435534 0.27035534 0.18200000
f 169 170 171
v -0.43071966 0.27365052 0.18000000
v -0.43435534 0.27035534 0.18000000
v -0.43435534 0.27035534 0.18200000
v -0.43071966 0.27365052 0.18200000
f 172 173 174 175
v 0.00000000 0.00000000 0.18200000
v -0.43435534 0.27035534 0.18200000
v -0.43765052 0.26671966 0.18200000
f 176 177 178
v -0.43435534 0.27035534 0.18000000
v -0.43765052 0.26671966 0.18000000
v -0.43765052 0.26671966 0.18200000
v -0.43435534 0.27035534 0.18200000
f 179 180 181 182
v 0.00000000 0.00000000 0.18200000
v -0.43765052 0.26671966 0.18200000
v -0.44057348 0.26277851 0.18200000
f 183 184 185
v -0.43765052 0.26671966 0.18000000
v -0.44057348 0.26277851 0.18000000
v -0.44057348 0.26277851 0.18200000
v -0.43765052 0.26671966 0.18200000
f 186 187 188 189
v 0.00000000 0.00000000 0.18200000
v -0.44057348 0.26277851 0.18200000
v -0.44309606 0.25856984 0.18200000
f 190 191 192
v -0.44057348 0.26277851 0.18000000
v -0.44309606 0.25856984 0.18000000
v -0.44309606 0.25856984 0.18200000
v -0.44057348 0.26277851 0.18200000
f 193 194 195 196
v 0.00000000 0.00000000 0.18200000
v -0.44309606 0.25856984 0.18200000
v -0.44519398 0.25413417 0.18200000
f 197 198 199
v -0.44309606 0.25856984 0.18000000
v -0.44519398 0.25413417 0.18000000
v -0.44519398 0.25413417 0.18200000
v -0.44309606 0.25856984 0.18200000
f 200 201 202 203
v 0.00000000 0.00000000 0.18200000
v -0.44519398 0.25413417 0.18200000
v -0.44684702 0.24951423 0.18200000
f 204 205 206
v -0.44519398 0.25413417 0.18000000
v -0.44684702 0.24951423 0.18000000
v -0.44684702 0.24951423 0.18200000
v -0.44519398 0.25413417 0.18200000
f 207 208 209 210
v 0.00000000 0.00000000 0.18200000
v -0.44684702 0.24951423 0.18200000
v -0.44803926 0.24475452 0.18200000
f 211 212 213
v -0.44684702 0.24951423 0.18000000
v -0.44803926 0.24475452 0.18000000
v -0.44803926 0.24475452 0.18200000
v -0.44684702 0.24951423 0.18200000
f 214 215 216 217
v 0.00000000 0.00000000 0.18200000
v -0.44803926 0.24475452 0.18200000
v -0.44875924 0.23990086 0.18200000
f 218 219 220
v -0.44803926 0.24475452 0.18000000
v -0.44875924 0.23990086 0.18000000
v -0.44875924 0.23990086 0.18200000
v -0.44803926 0.24475452 0.18200000
f 221 222 223 224
v 0.00000000 0.00000000 0.18200000
v -0.44875924 0.23990086 0.18200000
v -0.44900000 0.23500000 0.18200000
f 225 226 227
v -0.44875924 0.23990086 0.18000000
v -0.44900000 0.23500000 0.18000000
v -0.44900000 0.23500000 0.18200000
v -0.44875924 0.23990086 0.18200000
f 228 229 230 231
v 0.00000000 0.00000000 0.18200000
v -0.44900000 0.23500000 0.18200000
v -0.44900000 -0.23500000 0.18200000
f 232 233 234
v -0.44900000 0.23500000 0.18000000
v -0.44900000 -0.23500000 0.18000000
v -0.44900000 -0.23500000 0.18200000
v -0.44900000 0.23500000 0.18200000
f 235 236 237 238
v 0.00000000 0.00000000 0.18200000
v -0.44900000 -0.23500000 0.18200000
v -0.44875924 -0.23990086 0.18200000
f 239 240 241
v -0.44900000 -0.23500000 0.18000000
v -0.44875924 -0.23990086 0.18000000
v -0.44875924 -0.23990086 0.18200000
v -0.44900000 -0.23500000 0.18200000
f 242 243 244 245
v 0.00000000 0.00000000 0.18200000
v -0.44875924 -0.23990086 0.18200000
v -0.44803926 -0.24475452 0.18200000
f 246 247 248
v -0.44875924 -0.23990086 0.18000000
v -0.44803926 -0.24475452 0.18000000
v -0.44803926 -0.24475452 0.18200000
v -0.44875924 -0.23990086 0.18200000
f 249 250 251 252
v 0.00000000 0.00000000 0.18200000
v -0.44803926 -0.24475452 0.18200000
v -0.44684702 -0.24951423 0.18200000
f 253 254 255
v -0.44803926 -0.24475452 0.18000000
v -0.44684702 -0.24951423 0.18000000
v -0.44684702 -0.24951423 0.18200000
v -0.44803926 -0.24475452 0.18200000
f 256 257 258 259
v 0.00000000 0.00000000 0.18200000
v -0.44684702 -0.24951423 0.18200000
v -0.44519398 -0.25413417 0.18200000
f 260 261 262
v -0.44684702 -0.24951423 0.18000000
v -0.44519398 -0.25413417 0.18000000
v -0.44519398 -0.25413417 0.18200000
v -0.44684702 -0.24951423 0.18200000
f 263 264 265 266
v 0.00000000 0.00000000 0.18200000
v -0.44519398 -0.25413417 0.18200000
v -0.44309606 -0.25856984 0.18200000
f 267 268 269
v -0.44519398 -0.25413417 0.18000000
v -0.44309606 -0.25856984 0.18000000
v -0.44309606 -0.25856984 0.18200000
v -0.44519398 -0.25413417 0.18200000
f 270 271 272 273
v 0.00000000 0.00000000 0.18200000
v -0.44309606 -0.25856984 0.18200000
v -0.44057348 -0.26277851 0.18200000
f 274 275 276
v -0.44309606 -0.25856984 0.18000000
v -0.44057348 -0.26277851 0.18000000
v -0.44057348 -0.26277851 0.18200000
v -0.44309606 -0.25856984 0.18200000
f 277 278 279 280
v 0.00000000 0.00000000 0.18200000
v -0.44057348 -0.26277851 0.18200000
v -0.43765052 -0.26671966 0.18200000
f 281 282 283
v -0.44057348 -0.26277851 0.18000000
v -0.43765052 -0.26671966 0.18000000
v -0.43765052 -0.26671966 0.18200000
v -0.44057348 -0.26277851 0.18200000
f 284 285 286 287
v 0.00000000 0.00000000 0.18200000
v -0.43765052 -0.26671966 0.18200000
v -0.43435534 -0.27035534 0.18200000
f 288 289 290
v -0.43765052 -0.26671966 0.18000000
v -0.43435534 -0.27035534 0.18000000
v -0.43435534 -0.27035534 0.18200000
v -0.43765052 -0.26671966 0.18200000
f 291 292 293 294
v 0.00000000 0.00000000 0.18200000
v -0.43435534 -0.27035534 0.18200000
v -0.43071966 -0.27365052 0.18200000
f 295 296 297
v -0.43435534 -0.27035534 0.18000000
v -0.43071966 -0.27365052 0.18000000
v -0.43071966 -0.27365052 0.18200000
v -0.43435534 -0.27035534 0.18200000
f 298 299 300 301
v 0.00000000 0.00000000 0.18200000
v -0.43071966 -0.27365052 0.18200000
v -0.42677851 -0.27657348 0.18200000
f 302 303 304
v -0.43071966 -0.27365052 0.18000000
v -0.42677851 -0.27657348 0.18000000
v -0.42677851 -0.27657348 0.18200000
v -0.43071966 -0.27365052 0.18200000
f 305 306 307 308
v 0.00000000 0.00000000 0.18200000
v -0.42677851 -0.27657348 0.18200000
v -0.42256984 -0.27909606 0.18200000
f 309 310 311
v -0.42677851 -0.27657348 0.18000000
v -0.42256984 -0.27909606 0.18000000
v -0.42256984 -0.27909606 0.18200000
v -0.42677851 -0.27657348 0.18200000
f 312 313 314 315
v 0.00000000 0.00000000 0.18200000
v -0.42256984 -0.27909606 0.18200000
v -0.41813417 -0.28119398 0.18200000
f 316 317 318
v -0.42256984 -0.27909606 0.18000000
v -0.41813417 -0.28119398 0.18000000
v -0.41813417 -0.28119398 0.18200000
v -0.42256984 -0.27909606 0.18200000
f 319 320 321 322
v 0.00000000 0.00000000 0.18200000
v -0.41813417 -0.28119398 0.18200000
v -0.41351423 -0.28284702 0.18200000
f 323 324 325
v -0.41813417 -0.28119398 0.18000000
v -0.41351423 -0.28284702 0.18000000
v -0.41351423 -0.28284702 0.18200000
v -0.41813417 -0.28119398 0.18200000
f 326 327 328 329
v 0.00000000 0.00000000 0.18200000
v -0.41351423 -0.28284702 0.18200000
v -0.40875452 -0.28403926 0.18200000
f 330 331 332
v -0.41351423 -0.28284702 0.18000000
v -0.40875452 -0.28403926 0.18000000
v -0.40875452 -0.28403926 0.18200000
v -0.41351423 -0.28284702 0.18200000
f 333 334 335 336
v 0.00000000 0.00000000 0.18200000
v -0.40875452 -0.28403926 0.18200000
v -0.40390086 -0.28475924 0.18200000
f 337 338 339
v -0.40875452 -0.28403926 0.18000000
v -0.40390086 -0.28475924 0.18000000
v -0.40390086 -0.28475924 0.18200000
v -0.40875452 -0.28403926 0.18200000
f 340 341 342 343
v 0.00000000 0.00000000 0.18200000
v -0.40390086 -0.28475924 0.18200000
v -0.39900000 -0.28500000 0.18200000
f 344 345 346
v -0.40390086 -0.28475924 0.18000000
v -0.39900000 -0.28500000 0.18000000
v -0.39900000 -0.28500000 0.18200000
v -0.40390086 -0.28475924 0.18200000
f 347 348 349 350
v 0.00000000 0.00000000 0.18200000
v -0.39900000 -0.28500000 0.18200000
v 0.39900000 -0.28500000 0.18200000
f 351 352 353
v -0.39900000 -0.28500000 0.18000000
v 0.39900000 -0.28500000 0.18000000
v 0.39900000 -0.28500000 0.18200000
v -0.39900000 -0.28500000 0.18200000
f 354 355 356 357
v 0.00000000 0.00000000 0.18200000
v 0.39900000 -0.28500000 0.18200000
v 0.40390086 -0.28475924 0.18200000
f 358 359 360
v 0.39900000 -0.28500000 0.18000000
v 0.40390086 -0.28475924 0.18000000
v 0.40390086 -0.28475924 0.18200000
v 0.39900000 -0.28500000 0.18200000
f 361 362 363 364
v 0.00000000 0.00000000 0.18200000
v 0.40390086 -0.28475924 0.18200000
v 0.40875452 -0.28403926 0.18200000
f 365 366 367
v 0.40390086 -0.28475924 0.18000000
v 0.40875452 -0.28403926 0.18000000
v 0.40875452 -0.28403926 0.18200000
v 0.40390086 -0.28475924 0.18200000
f 368 369 370 371
v 0.00000000 0.00000000 0.18200000
v 0.40875452 -0.28403926 0.18200000
v 0.41351423 -0.28284702 0.18200000
f 372 373 374
v 0.40875452 -0.28403926 0.18000000
v 0.41351423 -0.28284702 0.18000000
v 0.41351423 -0.28284702 0.18200000
v 0.40875452 -0.28403926 0.18200000
f 375 376 377 378
v 0.00000000 0.00000000 0.18200000
v 0.41351423 -0.28284702 0.18200000
v 0.41813417 -0.28119398 0.18200000
f 379 380 381
v 0.41351423 -0.28284702 0.18000000
v 0.41813417 -0.28119398 0.18000000
v 0.41813417 -0.28119398 0.18200000
v 0.41351423 -0.28284702 0.18200000
f 382 383 384 385
v 0.00000000 0.00000000 0.18200000
v 0.41813417 -0.28119398 0.18200000
v 0.42256984 -0.27909606 0.18200000
f 386 387 388
v 0.41813417 -0.28119398 0.18000000
v 0.42256984 -0.27909606 0.18000000
v 0.42256984 -0.27909606 0.18200000
v 0.41813417 -0.28119398 0.18200000
f 389 390 391 392
v 0.00000000 0.00000000 0.18200000
v 0.42256984 -0.27909606 0.18200000
v 0.42677851 -0.27657348 0.18200000
f 393 394 395
v 0.42256984 -0.27909606 0.18000000
v 0.42677851 -0.27657348 0.18000000
v 0.42677851 -0.27657348 0.18200000
v 0.42256984 -0.27909606 0.18200000
f 396 397 398 399
v 0.00000000 0.00000000 0.18200000
v 0.42677851 -0.27657348 0.18200000
v 0.43071966 -0.27365052 0.18200000
f 400 401 402
v 0.42677851 -0.27657348 0.18000000
v 0.43071966 -0.27365052 0.18000000
v 0.43071966 -0.27365052 0.18200000
v 0.42677851 -0.27657348 0.18200000
f 403 404 405 406
v 0.00000000 0.00000000 0.18200000
v 0.43071966 -0.27365052 0.18200000
v 0.43435534 -0.27035534 0.18200000
f 407 408 409
v 0.43071966 -0.27365052 0.18000000
v 0.43435534 -0.27035534 0.18000000
v 0.43435534 -0.27035534 0.18200000
v 0.43071966 -0.27365052 0.18200000
f 410 411 412 413
v 0.00000000 0.00000000 0.18200000
v 0.43435534 -0.27035534 0.18200000
v 0.43765052 -0.26671966 0.18200000
f 414 415 416
v 0.43435534 -0.27035534 0.18000000
v 0.43765052 -0.26671966 0.18000000
v 0.43765052 -0.26671966 0.18200000
v 0.43435534 -0.27035534 0.18200000
f 417 418 419 420
v 0.00000000 0.00000000 0.18200000
v 0.43765052 -0.26671966 0.18200000
v 0.44057348 -0.26277851 0.18200000
f 421 422 423
v 0.43765052 -0.26671966 0.18000000
v 0.44057348 -0.26277851 0.18000000
v 0.44057348 -0.26277851 0.18200000
v 0.43765052 -0.26671966 0.18200000
f 424 425 426 427
v 0.00000000 0.00000000 0.18200000
v 0.44057348 -0.26277851 0.18200000
v 0.44309606 -0.25856984 0.18200000
f 428 429 430
v 0.44057348 -0.26277851 0.18000000
v 0.44309606 -0.25856984 0.18000000
v 0.44309606 -0.25856984 0.18200000
v 0.44057348 -0.26277851 0.18200000
f 431 432 433 434
v 0.00000000 0.00000000 0.18200000
v 0.44309606 -0.25856984 0.18200000
v 0.44519398 -0.25413417 0.18200000
f 435 436 437
v 0.44309606 -0.25856984 0.18000000
v 0.44519398 -0.25413417 0.18000000
v 0.44519398 -0.25413417 0.18200000
v 0.44309606 -0.25856984 0.18200000
f 438 439 440 441
v 0.00000000 0.00000000 0.18200000
v 0.44519398 -0.25413417 0.18200000
v 0.44684702 -0.24951423 0.18200000
f 442 443 444
v 0.44519398 -0.25413417 0.18000000
v 0.44684702 -0.24951423 0.18000000
v 0.44684702 -0.24951423 0.18200000
v 0.44519398 -0.25413417 0.18200000
f 445 446 447 448
v 0.00000000 0.00000000 0.18200000
v 0.44684702 -0.24951423 0.18200000
v 0.44803926 -0.24475452 0.18200000
f 449 450 451
v 0.44684702 -0.24951423 0.18000000
v 0.44803926 -0.24475452 0.18000000
v 0.44803926 -0.24475452 0.18200000
v 0.44684702 -0.24951423 0.18200000
f 452 453 454 455
v 0.00000000 0.00000000 0.18200000
v 0.44803926 -0.24475452 0.18200000
v 0.44875924 -0.23990086 0.18200000
f 456 457 458
v 0.44803926 -0.24475452 0.18000000
v 0.44875924 -0.23990086 0.18000000
v 0.44875924 -0.23990086 0.18200000
v 0.44803926 -0.24475452 0.18200000
f 459 460 461 462
v 0.00000000 0.00000000 0.18200000
v 0.44875924 -0.23990086 0.18200000
v 0.44900000 -0.23500000 0.18200000
f 463 464 465
v 0.44875924 -0.23990086 0.18000000
v 0.44900000 -0.23500000 0.18000000
v 0.44900000 -0.23500000 0.18200000
v 0.44875924 -0.23990086 0.18200000
f 466 467 468 469
v 0.00000000 0.00000000 0.18200000
v 0.44900000 -0.23500000 0.18200000
v 0.44900000 0.23500000 0.18200000
f 470 471 472
v 0.44900000 -0.23500000 0.18000000
v 0.44900000 0.23500000 0.18000000
v 0.44900000 0.23500000 0.18200000
v 0.44900000 -0.23500000 0.18200000
f 473 474 475 476
